<svg xmlns="http://www.w3.org/2000/svg" viewBox="0 0 64 64" role="img" aria-label="Screel">
  <defs>
    <linearGradient id="g" x1="0" y1="0" x2="1" y2="1">
      <stop offset="0%" stop-color="#c8ff2e"/>
      <stop offset="55%" stop-color="#9ad100"/>
      <stop offset="100%" stop-color="#f0c94d"/>
    </linearGradient>
  </defs>
  <rect width="64" height="64" rx="16" fill="#050806"/>
  <rect x="4" y="4" width="56" height="56" rx="14" fill="url(#g)"/>
  <!-- Original path glyph — no proprietary font files embedded -->
  <path fill="#050806" d="M40.2 22.4c-1.1-2.4-3.5-3.9-6.8-3.9-4.6 0-7.6 2.6-7.6 6.1 0 3.1 2.1 5 6.5 6.3l2.1.6c3.4.9 5 2 5 4.4 0 2.5-2.2 4.2-5.4 4.2-3.1 0-5.5-1.4-6.5-3.9l-4.2 1.6c1.6 4.1 5.4 6.5 10.7 6.5 6.1 0 10.1-3.4 10.1-8.1 0-3.5-2.1-5.7-6.8-7.1l-2.2-.6c-2.9-.8-4.4-1.8-4.4-3.8 0-2.1 1.9-3.5 4.6-3.5 2.5 0 4.3 1.1 5.1 3.2l4.1-1.6z"/>
</svg>
